<svg xmlns="http://www.w3.org/2000/svg" viewBox="55.12367309570311 98.25299999999999 464.7526550292969 461.2188704223633"> <svg xmlns="http://www.w3.org/2000/svg" xmlns:xlink="http://www.w3.org/1999/xlink" version="1.1" id="Layer_1" x="195.299" y="168.253" viewBox="227.0247802734375 180.3000030517578 82.11276245117188 106.19996643066406" xml:space="preserve" height="238.49383043262176" width="184.4010169483791" preserveAspectRatio="xMinYMin" enable-background="new 0 0 800 600" style="overflow: visible;"><linearGradient id="SVGID_1_" gradientUnits="userSpaceOnUse" x1="220.1587" y1="204.825" x2="355.7243" y2="381.9688" style=""><stop offset="0" style="stop-color: #F7C725;"></stop><stop offset="0.4941" style="stop-color: #F2285F;"></stop><stop offset="1" style="stop-color: #D5316E;"></stop></linearGradient><path class="st0" d="M256.5,273.9l-9.1-13.2c-3.4-5-3.4-11.7,0-16.7l9.1-13.2l9.1,13.2c3.4,5,3.4,11.7,0,16.7L256.5,273.9z    M256.5,240.2l-4.7,6.8c-2.2,3.2-2.2,7.5,0,10.7l4.7,6.8l4.7-6.8c2.2-3.2,2.2-7.5,0-10.7L256.5,240.2z" style="fill: url(#SVGID_1_);"></path><linearGradient id="SVGID_00000011017566707726281210000001761394125130731680_" gradientUnits="userSpaceOnUse" x1="251.8438" y1="180.5768" x2="387.4095" y2="357.7206" style=""><stop offset="0" style="stop-color: #F7C725;"></stop><stop offset="0.4941" style="stop-color: #F2285F;"></stop><stop offset="1" style="stop-color: #D5316E;"></stop></linearGradient><path style="fill: url(#SVGID_00000011017566707726281210000001761394125130731680_);" d="M268.1,223.4l-9.1-13.2   c-3.4-5-3.4-11.7,0-16.7l9.1-13.2l9.1,13.2c3.4,5,3.4,11.7,0,16.7L268.1,223.4z M268.1,189.7l-4.7,6.8c-2.2,3.2-2.2,7.5,0,10.7   l4.7,6.8l4.7-6.8c2.2-3.2,2.2-7.5,0-10.7L268.1,189.7z"></path><linearGradient id="SVGID_00000049191349537865976720000009057710730150518697_" gradientUnits="userSpaceOnUse" x1="236.0015" y1="192.7008" x2="371.5671" y2="369.8445" style=""><stop offset="0" style="stop-color: #F7C725;"></stop><stop offset="0.4941" style="stop-color: #F2285F;"></stop><stop offset="1" style="stop-color: #D5316E;"></stop></linearGradient><polygon style="fill: url(#SVGID_00000049191349537865976720000009057710730150518697_);" points="258.7,237 254.3,234 265.9,217.1    270.3,220.2  "></polygon><linearGradient id="SVGID_00000151541861075499441500000010338349215828508562_" gradientUnits="userSpaceOnUse" x1="234.6271" y1="193.7525" x2="370.1927" y2="370.8963" style=""><stop offset="0" style="stop-color: #F7C725;"></stop><stop offset="0.4941" style="stop-color: #F2285F;"></stop><stop offset="1" style="stop-color: #D5316E;"></stop></linearGradient><path style="fill: url(#SVGID_00000151541861075499441500000010338349215828508562_);" d="M302.3,230l-11-16.1l-3.2,4.7l9.9,14.4   c7.9,11.5,7.9,27.1,0,38.6c-4.2,6.1-10.8,9.6-18.2,9.6h-5l4.5-6.6c9.2-13.4,9.2-31.3,0-44.6l-8.8-12.9l-4.4,3l8.8,12.9   c7.9,11.5,7.9,27.1,0,38.6l-10.2,14.9h15.1c9,0,17.5-4.5,22.6-11.9C311.4,261.3,311.4,243.4,302.3,230z"></path><linearGradient id="SVGID_00000059301843565001437700000004488373259915708600_" gradientUnits="userSpaceOnUse" x1="213.2516" y1="210.1109" x2="348.8172" y2="387.2546" style=""><stop offset="0" style="stop-color: #F7C725;"></stop><stop offset="0.4941" style="stop-color: #F2285F;"></stop><stop offset="1" style="stop-color: #D5316E;"></stop></linearGradient><path style="fill: url(#SVGID_00000059301843565001437700000004488373259915708600_);" d="M248.7,285.4l3.2-4.7   c-1.1-0.2-2.3-0.6-3.4-1c-4.1-1.6-7.6-4.3-10.1-8l-0.1-0.1c-7.9-11.5-7.9-27.1,0-38.6l6.6-9.7l9.4,13.6l4.4-3L245,213.9L233.9,230   c-9.1,13.3-9.2,31.2-0.1,44.5l0.1,0.2c3.2,4.6,7.5,8.1,12.7,10.1C247.3,285,248,285.2,248.7,285.4z"></path></svg> <g transform="rotate(0 287.50000061035155 462.23593521118164)"><svg y="435" viewBox="-168.7078857421875 -53.62843322753906 324.7526550292969 54.47187042236328" x="125.12367309570311" height="54.47187042236328" width="324.7526550292969" style="overflow: visible;"><g fill="#DE3A3A" fill-opacity="1" style=""><path d="M30.75 0L22.72 0L-0.82-52.88L9.45-52.88L28.57-8.55L25.35-8.55L44.40-52.88L54.30-52.88L30.75 0Z" transform="translate(-31.9875 0), rotate(-0.40422187289467776 26.7375 19210.35796288167)"></path><path d="M15.38 0L5.77 0L5.77-52.88L15.38-52.88L15.38 0Z" transform="translate(-15.787500000000001 0), rotate(-0.26117224343139456 10.575 19210.35796288167)"></path><path d="M24 0.75L24 0.75Q19.88 0.75 16.09 0.04Q12.30-0.67 9.11-2.02Q5.92-3.38 3.45-5.25L3.45-5.25L6.38-12.82Q8.85-11.10 11.59-9.86Q14.32-8.63 17.44-7.99Q20.55-7.35 24-7.35L24-7.35Q29.92-7.35 32.63-9.34Q35.32-11.32 35.32-14.47L35.32-14.47Q35.32-16.20 34.50-17.44Q33.67-18.68 31.80-19.57Q29.92-20.47 26.85-21.07L26.85-21.07L18.60-22.80Q11.47-24.30 7.99-27.86Q4.50-31.42 4.50-37.27L4.50-37.27Q4.50-42.23 7.13-45.90Q9.75-49.57 14.40-51.60Q19.05-53.63 25.13-53.63L25.13-53.63Q28.72-53.63 32.06-52.91Q35.40-52.20 38.21-50.81Q41.02-49.42 43.13-47.48L43.13-47.48L40.20-40.27Q37.05-42.90 33.30-44.21Q29.55-45.52 25.05-45.52L25.05-45.52Q21.60-45.52 19.13-44.55Q16.65-43.57 15.34-41.81Q14.03-40.05 14.03-37.65L14.03-37.65Q14.03-34.95 15.82-33.34Q17.63-31.72 21.97-30.82L21.97-30.82L30.15-29.10Q37.57-27.52 41.21-24.15Q44.85-20.77 44.85-15.15L44.85-15.15Q44.85-10.42 42.30-6.83Q39.75-3.23 35.06-1.24Q30.38 0.75 24 0.75Z" transform="translate(-28.912499999999998 0), rotate(-0.12732988996182348 24.15 19210.35796288167)"></path><path d="M15.38 0L5.77 0L5.77-52.88L28.72-52.88Q34.57-52.88 38.63-50.92Q42.67-48.98 44.77-45.30Q46.88-41.63 46.88-36.38L46.88-36.38Q46.88-31.20 44.77-27.49Q42.67-23.77 38.63-21.79Q34.57-19.80 28.72-19.80L28.72-19.80L15.38-19.80L15.38 0ZM15.38-45.30L15.38-27.38L27.22-27.38Q32.32-27.38 34.95-29.66Q37.57-31.95 37.57-36.38L37.57-36.38Q37.57-40.80 34.95-43.05Q32.32-45.30 27.22-45.30L27.22-45.30L15.38-45.30Z" transform="translate(-29.5875 0), rotate(0.04783292162587016 26.325 19210.35796288167)"></path><path d="M27.97 0L18.38 0L18.38-27.22L20.40-21.45L-1.95-52.88L9.22-52.88L24.38-31.35L22.27-31.35L37.50-52.88L48.23-52.88L26.02-21.45L27.97-27.22L27.97 0Z" transform="translate(-29.7375 0), rotate(0.22546597799236479 23.137500000000003 19210.35796288167)"></path><path d="M15.38 0L5.77 0L5.77-52.88L28.72-52.88Q37.42-52.88 42.15-48.71Q46.88-44.55 46.88-37.05L46.88-37.05Q46.88-32.17 44.74-28.65Q42.60-25.13 38.55-23.25Q34.50-21.38 28.72-21.38L28.72-21.38L29.40-22.50L31.88-22.50Q34.95-22.50 37.24-21Q39.52-19.50 41.25-16.27L41.25-16.27L50.10 0L39.52 0L30.38-16.88Q29.47-18.52 28.35-19.46Q27.22-20.40 25.80-20.77Q24.38-21.15 22.50-21.15L22.50-21.15L15.38-21.15L15.38 0ZM15.38-45.30L15.38-28.27L27.07-28.27Q32.25-28.27 34.91-30.41Q37.57-32.55 37.57-36.82L37.57-36.82Q37.57-41.02 34.91-43.16Q32.25-45.30 27.07-45.30L27.07-45.30L15.38-45.30Z" transform="translate(-30.974999999999998 0), rotate(0.4072535369413879 27.9375 19210.35796288167)"></path></g></svg></g></svg>